<?xml version="1.0" encoding="iso-8859-1"?>
<!-- Uploaded to: SVG Repo, www.svgrepo.com, Generator: SVG Repo Mixer Tools -->
<!DOCTYPE svg PUBLIC "-//W3C//DTD SVG 1.1//EN" "http://www.w3.org/Graphics/SVG/1.1/DTD/svg11.dtd">
<svg fill="#000000" version="1.1" id="Capa_1" xmlns="http://www.w3.org/2000/svg" xmlns:xlink="http://www.w3.org/1999/xlink" 
	 width="800px" height="800px" viewBox="0 0 237.117 237.117"
	 xml:space="preserve">
<g>
	<path d="M137.896,77.304l-27.568,39.759l-4.977-3.449l-2.486-1.726l0,0l-2.488-1.727l27.565-39.758l2.494,1.726l8.547-12.324
		c-4.682-5.06-5.22-13.196-0.887-19.452l8.677-12.51l4.971,3.443l-8.671,12.51c-2.399,3.449-2.447,7.746-0.484,10.793l13.879-20.023
		l4.977,3.443l-13.891,20.034c1.2,0.267,2.482,0.284,3.771,0c2.465-0.549,4.657-2.057,6.171-4.244l8.688-12.51l4.959,3.452
		l-8.671,12.504c-2.382,3.438-5.875,5.816-9.823,6.7c-1.111,0.248-2.223,0.369-3.311,0.369c-1.862,0-3.629-0.479-5.319-1.167
		l-8.618,12.43L137.896,77.304z M191.1,65.616c-0.083,4.347-1.696,9.014-4.563,13.134c-4.285,6.18-10.539,10.024-16.331,10.024
		c-1.253,0-2.471-0.225-3.611-0.594l-4.215,6.088l2.482,1.726L137.3,135.752l-4.978-3.445l-2.482-1.727l0,0l-2.488-1.726
		l27.568-39.762l2.482,1.726l4.208-6.064c-4.161-5.181-3.582-14.168,1.856-22.009c6.028-8.703,16.449-12.436,22.697-8.098
		C189.438,56.917,191.2,60.816,191.1,65.616z M185.059,65.5c0.029-1.566-0.23-4.418-2.341-5.875
		c-0.81-0.559-1.791-0.842-2.914-0.842c-3.724,0-8.287,2.979-11.36,7.415c-4.185,6.041-4.717,13.22-1.146,15.687
		c3.452,2.385,10.272-0.792,14.28-6.579C183.729,72.194,184.993,68.624,185.059,65.5z M194.463,115.331
		c-12.874,18.572-29.259,33.035-45.903,41.304l-3.18,55.904c-0.219,3.783-2.767,7.045-6.396,8.168
		c-0.881,0.272-1.773,0.391-2.666,0.391c-2.772,0-5.443-1.265-7.193-3.547L88.06,163.983l-61.907-17.857
		c-3.667-1.063-6.283-4.303-6.543-8.121c-0.26-3.807,1.9-7.377,5.399-8.913l51.188-22.573c1.829-18.149,9.362-38.373,22.623-57.5
		C119.461,19.24,149.145,0,174.449,0c9.149,0,17.271,2.42,24.169,7.203C225.423,25.8,223.597,73.296,194.463,115.331z
		 M55.22,135.617l27.163,7.838c-2.843-5.107-4.782-10.923-5.805-17.26L55.22,135.617z M130,163.149
		c-3.789,0.769-7.53,1.206-11.181,1.206c-2.857,0-5.567-0.319-8.219-0.792l18.04,23.536L130,163.149z M188.269,22.133
		c-3.801-2.64-8.453-3.97-13.825-3.97c-19.229,0-43.628,16.56-60.701,41.207c-22.57,32.551-26.566,70.495-8.727,82.86
		c3.8,2.63,8.449,3.966,13.816,3.966c19.231,0,43.631-16.556,60.725-41.216C202.105,72.442,206.095,34.493,188.269,22.133z
		 M42.122,151.978L19.54,184.545l14.924,10.345l22.582-32.58L42.122,151.978z M80.441,226.772l14.925,10.345l22.582-32.568
		l-14.925-10.345L80.441,226.772z M72.571,173.079l-22.582,32.58l14.928,10.345l22.582-32.581L72.571,173.079z"/>
</g>
</svg>